<?xml version="1.0" encoding="UTF-8" standalone="no"?>
<!-- Created with Inkscape (http://www.inkscape.org/) -->

<svg
   xmlns:dc="http://purl.org/dc/elements/1.1/"
   xmlns:cc="http://creativecommons.org/ns#"
   xmlns:rdf="http://www.w3.org/1999/02/22-rdf-syntax-ns#"
   xmlns:svg="http://www.w3.org/2000/svg"
   xmlns="http://www.w3.org/2000/svg"
   xmlns:sodipodi="http://sodipodi.sourceforge.net/DTD/sodipodi-0.dtd"
   xmlns:inkscape="http://www.inkscape.org/namespaces/inkscape"
   id="svg4151"
   version="1.1"
   inkscape:version="0.91 r13725"
   width="512"
   height="512"
   viewBox="0 0 512 512"
   sodipodi:docname="sacrednew.svg"
   inkscape:export-filename="D:\splash.png"
   inkscape:export-xdpi="44.073746"
   inkscape:export-ydpi="44.073746">
  <metadata
     id="metadata4157">
    <rdf:RDF>
      <cc:Work
         rdf:about="">
        <dc:format>image/svg+xml</dc:format>
        <dc:type
           rdf:resource="http://purl.org/dc/dcmitype/StillImage" />
        <dc:title />
      </cc:Work>
    </rdf:RDF>
  </metadata>
  <defs
     id="defs4155" />
  <sodipodi:namedview
     pagecolor="#ff6363"
     bordercolor="#666666"
     borderopacity="1"
     objecttolerance="10"
     gridtolerance="10"
     guidetolerance="10"
     inkscape:pageopacity="0"
     inkscape:pageshadow="2"
     inkscape:window-width="1366"
     inkscape:window-height="705"
     id="namedview4153"
     showgrid="false"
     inkscape:zoom="0.99937759"
     inkscape:cx="221.02016"
     inkscape:cy="258.41442"
     inkscape:window-x="-8"
     inkscape:window-y="-8"
     inkscape:window-maximized="1"
     inkscape:current-layer="svg4151"
     units="px" />
  <path
     style="opacity:1;fill:#ffffff;fill-opacity:1;fill-rule:nonzero;stroke:none;stroke-width:45.8219986;stroke-linecap:round;stroke-linejoin:miter;stroke-miterlimit:4;stroke-dasharray:none;stroke-dashoffset:0;stroke-opacity:1"
     d="M 263.91797 32.873047 L 63.070312 257.48828 L 261.08789 484.87109 L 267.04688 478.19336 L 443.99023 272.85156 L 418.14844 284.72852 C 420.09615 283.90738 421.37863 283.39087 421.42383 283.4375 C 421.75325 283.7775 280.89843 446.04516 275.10156 452.00391 C 274.01102 453.12489 273.2499 453.61459 273.4082 453.09375 C 273.56691 452.57236 283.43064 424.68998 295.32812 391.13281 L 314.25586 337.74414 L 310.55273 338.10938 L 305.74609 276.30859 L 311.12109 275.77734 C 301.37848 227.10923 266.69965 51.373535 266.84961 51.21875 C 266.94021 51.12542 303.53323 92.909184 348.16797 144.07227 C 426.87646 234.29281 429.27237 237.12259 427.67578 237.98438 C 426.87587 238.41617 386.43443 256.81396 353.97656 271.54688 L 355.89062 271.35742 L 439.34766 233.00391 L 263.91797 32.873047 z M 330.70508 282.09961 C 329.863 282.48083 329.80756 282.50442 329.02734 282.85742 L 330.70508 282.85742 L 330.70508 282.09961 z M 360.40234 304.29883 L 313.6582 321.60938 L 316.88672 330.32617 L 316.95898 330.12109 L 362.35742 309.58203 L 360.40234 304.29883 z "
     id="path5048" />
  <path
     inkscape:connector-curvature="0"
     style="opacity:1;fill:#000000;fill-opacity:1;fill-rule:nonzero;stroke:none;stroke-width:45.8219986;stroke-linecap:round;stroke-linejoin:miter;stroke-miterlimit:4;stroke-dasharray:none;stroke-dashoffset:0;stroke-opacity:1"
     d="M 255.4256,22.187315 209.32136,73.693246 84.545064,216.72794 l -26.709057,31.26723 0.478656,0.43483 -0.727561,-0.15807 -5.973639,6.99658 8.692411,10.02053 0.09577,0.0202 127.361042,146.03889 68.90745,78.46451 18.62933,-20.83164 145.45427,-166.77169 39.6328,-46.42649 -1.72316,-1.97644 -27.09199,12.25391 -0.11489,-0.1186 -0.24889,0.27666 -115.87331,52.45414 -6.03108,3.04371 -50.31642,141.94766 -2.3167,2.66819 L 86.306523,270.98112 297.98777,317.36808 298.04521,300.9439 74.703878,252.02709 254.98523,45.331384 l 47.40618,239.287146 4.90145,15.7522 0.3829,0.88939 122.82337,-55.59716 0.0961,0.1186 0.34467,-0.33596 14.6469,-6.64083 -10.95167,-12.57014 -0.11489,0.0395 L 298.38984,70.214718 255.4256,22.187315 Z M 275.29944,67.763937 419.5092,233.07307 317.22978,279.38097 275.29944,67.763937 Z m 130.6159,227.448293 -118.99411,136.4334 34.86536,-98.34748 84.12875,-38.08592 z"
     id="rect4701"
     inkscape:export-xdpi="498.5705"
     inkscape:export-ydpi="498.5705" />
  <path
     style="opacity:1;fill:#000000;fill-opacity:1;fill-rule:nonzero;stroke:none;stroke-width:45.8219986;stroke-linecap:round;stroke-linejoin:miter;stroke-miterlimit:4;stroke-dasharray:none;stroke-dashoffset:0;stroke-opacity:1"
     d="m 313.90348,288.54994 c -0.53967,-1.67613 -47.05413,-237.219727 -46.88077,-237.398666 0.0906,-0.09333 36.68361,41.691111 81.31835,92.854186 78.70849,90.22054 81.10445,93.05055 79.50786,93.91234 -1.29364,0.69832 -109.30694,49.78029 -112.76509,51.24126 -0.47653,0.20141 -1.00769,-0.0727 -1.18035,-0.60915 z"
     id="path5037"
     inkscape:connector-curvature="0" />
  <path
     style="opacity:1;fill:#000000;fill-opacity:1;fill-rule:nonzero;stroke:none;stroke-width:45.8219986;stroke-linecap:round;stroke-linejoin:miter;stroke-miterlimit:4;stroke-dasharray:none;stroke-dashoffset:0;stroke-opacity:1"
     d="m 274.41643,452.60683 c 0.15871,-0.52139 10.02252,-28.40337 21.92,-61.96054 l 21.6312,-61.01294 52.0375,-23.54318 c 28.62091,-12.94864 52.21334,-23.36177 52.42796,-23.14036 0.32942,0.34 -140.52527,162.60782 -146.32214,168.56657 -1.09054,1.12098 -1.85282,1.61133 -1.69452,1.09049 z"
     id="path5039"
     inkscape:connector-curvature="0" />
</svg>
