<?xml version="1.0" encoding="UTF-8" standalone="no"?>
<svg
   xmlns:dc="http://purl.org/dc/elements/1.1/"
   xmlns:cc="http://creativecommons.org/ns#"
   xmlns:rdf="http://www.w3.org/1999/02/22-rdf-syntax-ns#"
   xmlns:svg="http://www.w3.org/2000/svg"
   xmlns="http://www.w3.org/2000/svg"
   xmlns:sodipodi="http://sodipodi.sourceforge.net/DTD/sodipodi-0.dtd"
   xmlns:inkscape="http://www.inkscape.org/namespaces/inkscape"
   id="svg4151"
   version="1.1"
   inkscape:version="1.0 (4035a4fb49, 2020-05-01)"
   width="512"
   height="512"
   viewBox="0 0 512 512"
   sodipodi:docname="sacredchat.svg"
   inkscape:export-filename="C:\downloads\splash.png"
   inkscape:export-xdpi="44.758961"
   inkscape:export-ydpi="44.758961">
  <metadata
     id="metadata4157">
    <rdf:RDF>
      <cc:Work
         rdf:about="">
        <dc:format>image/svg+xml</dc:format>
        <dc:type
           rdf:resource="http://purl.org/dc/dcmitype/StillImage" />
        <dc:title></dc:title>
      </cc:Work>
    </rdf:RDF>
  </metadata>
  <defs
     id="defs4155" />
  <sodipodi:namedview
     pagecolor="#ff6363"
     bordercolor="#666666"
     borderopacity="1"
     objecttolerance="10"
     gridtolerance="10"
     guidetolerance="10"
     inkscape:pageopacity="0"
     inkscape:pageshadow="2"
     inkscape:window-width="1920"
     inkscape:window-height="1017"
     id="namedview4153"
     showgrid="false"
     inkscape:zoom="0.70666667"
     inkscape:cx="59.138062"
     inkscape:cy="89.682772"
     inkscape:window-x="-8"
     inkscape:window-y="-8"
     inkscape:window-maximized="1"
     inkscape:current-layer="svg4151"
     units="px"
     inkscape:document-rotation="0" />
  <g
     id="g24"
     transform="matrix(0.75926599,0,0,0.75926599,61.627905,43.231698)">
    <path
       id="path5048"
       d="M 263.91797,32.873047 63.070312,257.48828 261.08789,484.87109 l 5.95899,-6.67773 176.94335,-205.3418 -25.84179,11.87696 c 1.94771,-0.82114 3.23019,-1.33765 3.27539,-1.29102 0.32942,0.34 -140.5254,162.60766 -146.32227,168.56641 -1.09054,1.12098 -1.85166,1.61068 -1.69336,1.08984 0.15871,-0.52139 10.02244,-28.40377 21.91992,-61.96094 l 18.92774,-53.38867 -3.70313,0.36524 -4.80664,-61.80079 5.375,-0.53125 C 301.37848,227.10923 266.69965,51.373535 266.84961,51.21875 c 0.0906,-0.09333 36.68362,41.690434 81.31836,92.85352 78.70849,90.22054 81.1044,93.05032 79.50781,93.91211 -0.79991,0.43179 -41.24135,18.82958 -73.69922,33.5625 l 1.91406,-0.18946 83.45704,-38.35351 z m 66.78711,249.226563 c -0.84208,0.38122 -0.89752,0.40481 -1.67774,0.75781 h 1.67774 z m 29.69726,22.19922 -46.74414,17.31055 3.22852,8.71679 0.0723,-0.20508 45.39844,-20.53906 z"
       style="opacity:1;fill:#ffffff;fill-opacity:1;fill-rule:nonzero;stroke:none;stroke-width:45.822;stroke-linecap:round;stroke-linejoin:miter;stroke-miterlimit:4;stroke-dasharray:none;stroke-dashoffset:0;stroke-opacity:1" />
    <path
       inkscape:export-ydpi="498.5705"
       inkscape:export-xdpi="498.5705"
       id="rect4701"
       d="M 255.4256,22.187315 209.32136,73.693246 84.545064,216.72794 l -26.709057,31.26723 0.478656,0.43483 -0.727561,-0.15807 -5.973639,6.99658 8.692411,10.02053 0.09577,0.0202 127.361046,146.03889 68.90745,78.46451 18.62933,-20.83164 145.45427,-166.77169 39.6328,-46.42649 -1.72316,-1.97644 -27.09199,12.25391 -0.11489,-0.1186 -0.24889,0.27666 -115.87331,52.45414 -6.03108,3.04371 -50.31642,141.94766 -2.3167,2.66819 L 86.306523,270.98112 297.98777,317.36808 298.04521,300.9439 74.703878,252.02709 254.98523,45.331384 l 47.40618,239.287146 4.90145,15.7522 0.3829,0.88939 122.82337,-55.59716 0.0961,0.1186 0.34467,-0.33596 14.6469,-6.64083 -10.95167,-12.57014 -0.11489,0.0395 -136.1304,-156.059412 z m 19.87384,45.576622 144.20976,165.309133 -102.27942,46.3079 z m 130.6159,227.448293 -118.99411,136.4334 34.86536,-98.34748 z"
       style="opacity:1;fill:#000000;fill-opacity:1;fill-rule:nonzero;stroke:none;stroke-width:45.822;stroke-linecap:round;stroke-linejoin:miter;stroke-miterlimit:4;stroke-dasharray:none;stroke-dashoffset:0;stroke-opacity:1"
       inkscape:connector-curvature="0" />
    <path
       inkscape:connector-curvature="0"
       id="path5037"
       d="m 313.90348,288.54994 c -0.53967,-1.67613 -47.05413,-237.219727 -46.88077,-237.398666 0.0906,-0.09333 36.68361,41.691111 81.31835,92.854186 78.70849,90.22054 81.10445,93.05055 79.50786,93.91234 -1.29364,0.69832 -109.30694,49.78029 -112.76509,51.24126 -0.47653,0.20141 -1.00769,-0.0727 -1.18035,-0.60915 z"
       style="opacity:1;fill:#000000;fill-opacity:1;fill-rule:nonzero;stroke:none;stroke-width:45.822;stroke-linecap:round;stroke-linejoin:miter;stroke-miterlimit:4;stroke-dasharray:none;stroke-dashoffset:0;stroke-opacity:1" />
    <path
       inkscape:connector-curvature="0"
       id="path5039"
       d="m 274.41643,452.60683 c 0.15871,-0.52139 10.02252,-28.40337 21.92,-61.96054 l 21.6312,-61.01294 52.0375,-23.54318 c 28.62091,-12.94864 52.21334,-23.36177 52.42796,-23.14036 0.32942,0.34 -140.52527,162.60782 -146.32214,168.56657 -1.09054,1.12098 -1.85282,1.61133 -1.69452,1.09049 z"
       style="opacity:1;fill:#000000;fill-opacity:1;fill-rule:nonzero;stroke:none;stroke-width:45.822;stroke-linecap:round;stroke-linejoin:miter;stroke-miterlimit:4;stroke-dasharray:none;stroke-dashoffset:0;stroke-opacity:1" />
  </g>
  <g
     transform="matrix(1,0,0,1.1320581,-1.388542e-5,-33.806945)"
     id="g137">
    <path
       id="path2-3"
       style="fill:#ffffff;stroke-width:0.988074"
       d="M 251.08257,36.195825 C 105.80241,35.69579 9.7809756,137.71019 5.6288085,242.54061 3.4057028,298.66774 27.679479,353.58957 79.151451,394.52648 c 0,0 -0.807798,12.34144 -5.518407,22.41865 -4.710609,10.07721 -22.975696,36.83303 -22.975696,36.83303 l -0.0021,-0.002 c 0,0 -9.546875,13.11069 -12.500074,16.36607 -2.9532,3.25538 -4.22974,3.93668 -4.22974,3.93668 l 35.452907,1.72515 c 18.056119,0.0795 35.850769,-2.11668 52.403049,-8.55093 l 66.90262,-21.1196 c 19.52813,4.57128 40.05693,7.50164 60.05191,8.47403 161.38071,7.84822 253.3329,-88.99901 257.6192,-197.21602 C 510.61342,149.88326 427.59325,44.458856 265.29328,36.565927 260.50574,36.3331 255.76906,36.212084 251.0826,36.195955 Z m 11.57495,27.107354 c 152.80522,0 206.85876,93.864101 201.23634,193.260651 -5.64723,99.8352 -57.95569,147.17336 -210.6484,155.83246 -26.57344,1.50696 -43.84835,5.4824 -68.64504,-1.03683 -23.47312,24.07591 -64.6054,24.76073 -95.71788,36.59319 L 62.135791,459.88657 76.848478,437.90469 C 89.574497,425.17868 102.03915,394.6968 104.17567,376.74102 49.677898,340.97695 36.106503,300.08252 36.106503,245.76631 c 0,-100.20707 82.312147,-182.463131 226.551017,-182.463131 z"
       sodipodi:nodetypes="ssczcczccccssssssscscccss" />
    <path
       d="M 249.22654,56.749819 C 120.7537,56.30763 35.840589,146.52027 32.168791,239.22297 30.20286,288.85692 49.9682,341.77299 95.485487,377.97392 c 0,0 0.786543,13.43975 -3.416943,24.15182 -4.203476,10.71194 -4.222664,9.86462 -7.210896,14.15813 -2.988231,4.29345 -5.043483,8.34784 -8.697626,13.56335 -3.654144,5.21538 -8.511437,10.23745 -10.880047,14.12479 -2.368633,3.88721 -14.367559,23.29085 -14.367559,23.29085 0,0 25.32872,-9.6635 47.337837,-13.23668 22.009167,-3.57331 30.785327,-8.30706 43.590307,-12.47391 l 52.20616,-22.28981 c 17.26898,4.0425 35.4228,6.63397 53.10459,7.49374 142.71119,6.94046 224.02558,-78.70284 227.81572,-174.40066 3.76578,-95.07066 -69.65011,-188.298754 -213.17378,-195.278575 -4.23371,-0.205891 -8.42238,-0.312888 -12.56671,-0.327167 z m 2.91134,9.322513 c 135.12768,0 207.58637,82.864738 207.58637,170.902888 0,88.61822 -73.22409,171.43013 -207.58637,171.43013 -23.53685,0 -48.09752,-3.14223 -70.02565,-8.90703 -20.75756,21.29051 -62.03392,34.85475 -76.63928,38.75716 -14.605387,3.90233 -33.954834,13.67942 -33.954834,13.67942 0,0 21.395448,-30.84388 26.065848,-37.34039 4.670406,-6.49637 14.629166,-27.80391 17.736026,-44.37804 -43.845356,-16.32224 -72.179951,-77.44493 -72.179951,-125.47723 0,-88.61467 81.445701,-178.666908 208.997841,-178.666908 z"
       style="fill:#000000;stroke-width:0.873768"
       id="path2-3-4"
       sodipodi:nodetypes="ssczzzzczccccssssssczczcss" />
  </g>
</svg>
