<?xml version="1.0" encoding="UTF-8" standalone="no"?>
<svg
   xmlns:dc="http://purl.org/dc/elements/1.1/"
   xmlns:cc="http://creativecommons.org/ns#"
   xmlns:rdf="http://www.w3.org/1999/02/22-rdf-syntax-ns#"
   xmlns:svg="http://www.w3.org/2000/svg"
   xmlns="http://www.w3.org/2000/svg"
   xmlns:sodipodi="http://sodipodi.sourceforge.net/DTD/sodipodi-0.dtd"
   xmlns:inkscape="http://www.inkscape.org/namespaces/inkscape"
   version="1.0"
   width="100.000000pt"
   height="100.000000pt"
   viewBox="0 0 100.000000 100.000000"
   preserveAspectRatio="xMidYMid meet"
   id="svg2"
   inkscape:version="0.91 r13725"
   sodipodi:docname="updater.svg"
   inkscape:export-filename="D:\updater.png"
   inkscape:export-xdpi="720"
   inkscape:export-ydpi="720">
  <defs
     id="defs16" />
  <sodipodi:namedview
     pagecolor="#ff5959"
     bordercolor="#666666"
     borderopacity="1"
     objecttolerance="10"
     gridtolerance="10"
     guidetolerance="10"
     inkscape:pageopacity="0"
     inkscape:pageshadow="2"
     inkscape:window-width="1366"
     inkscape:window-height="705"
     id="namedview14"
     showgrid="false"
     inkscape:zoom="1.888"
     inkscape:cx="52.283822"
     inkscape:cy="116.8723"
     inkscape:window-x="-8"
     inkscape:window-y="-8"
     inkscape:window-maximized="1"
     inkscape:current-layer="svg2" />
  <metadata
     id="metadata4">
Created by potrace 1.15, written by Peter Selinger 2001-2017
<rdf:RDF>
  <cc:Work
     rdf:about="">
    <dc:format>image/svg+xml</dc:format>
    <dc:type
       rdf:resource="http://purl.org/dc/dcmitype/StillImage" />
    <dc:title></dc:title>
  </cc:Work>
</rdf:RDF>
</metadata>
  <circle
     style="opacity:1;fill:#ffffff;fill-opacity:1;fill-rule:nonzero;stroke:none;stroke-width:45.8219986;stroke-linecap:round;stroke-linejoin:miter;stroke-miterlimit:4;stroke-dasharray:none;stroke-dashoffset:0;stroke-opacity:1"
     id="path4243"
     cx="50"
     cy="50"
     r="46.927963" />
  <path
     inkscape:connector-curvature="0"
     style="fill:#000000;stroke:#000000;stroke-opacity:1;stroke-width:4.44;stroke-miterlimit:4;stroke-dasharray:none"
     id="path8"
     d="m 33.21497,15.34363 c -4.336468,2.11535 -4.548003,2.326885 -3.913398,6.134515 0.528838,3.173026 0.211535,4.336469 -1.903815,6.240284 -2.009583,1.903815 -3.278793,2.221118 -6.134516,1.69228 -3.596096,-0.634605 -3.807631,-0.528837 -6.028748,4.124933 -3.067258,6.663354 -2.961491,10.576752 0.42307,12.057497 2.009582,0.951908 2.644188,2.009583 2.644188,4.442236 0,2.221118 -0.846141,3.596095 -2.644188,4.865306 -3.278793,2.11535 -3.384561,5.182608 -0.42307,11.528659 2.221117,4.653771 2.432652,4.865306 6.557586,4.548003 5.394143,-0.317302 8.249866,2.749956 7.403726,8.038331 -0.528838,3.278793 -0.317303,3.596096 4.336468,5.711446 6.346051,2.961491 9.201774,2.961491 12.057497,-0.317302 2.96149,-3.384561 6.028748,-3.384561 9.096006,0 2.961491,3.173025 5.922981,3.278793 12.163264,0.528837 4.442236,-2.009583 4.548004,-2.326885 4.019166,-5.922981 -0.951908,-5.394143 2.749956,-9.096006 8.144099,-8.144098 3.596095,0.528837 3.913398,0.42307 5.922981,-4.019166 2.855723,-6.346051 2.749955,-9.836379 -0.528838,-11.951729 -1.798048,-1.163443 -2.644188,-2.749956 -2.644188,-4.865306 0,-2.11535 0.84614,-3.701863 2.644188,-4.865306 3.278793,-2.11535 3.384561,-5.605678 0.42307,-11.845962 -2.221118,-4.548003 -2.432653,-4.65377 -6.240283,-4.019165 -5.499911,0.84614 -8.672937,-2.538421 -7.721029,-8.144099 0.528838,-3.807631 0.42307,-3.913398 -4.019166,-6.028749 -6.34605,-2.855722 -9.836379,-2.749955 -11.951729,0.528838 -1.163443,1.798048 -2.749955,2.644188 -4.865306,2.644188 -2.11535,0 -3.701863,-0.84614 -4.865305,-2.644188 -2.115351,-3.278793 -5.711446,-3.38456 -11.95173,-0.317302 z m 16.817035,6.134515 c 2.326886,0 4.230701,-0.951907 6.240284,-3.067257 l 2.855723,-3.067258 4.442235,1.903815 c 4.124934,1.903815 4.442236,2.326885 4.442236,6.134516 0,5.394143 3.701863,9.096006 8.990239,8.884471 3.490328,-0.105767 4.019166,0.211535 5.817213,4.230701 l 1.903816,4.442235 -3.067258,2.855723 c -4.124933,3.913399 -4.124933,8.567169 0,12.480567 l 3.067258,2.855723 -1.903816,4.442236 c -1.798047,4.019166 -2.326885,4.442236 -5.92298,4.442236 -5.499911,0 -8.884472,3.278793 -8.884472,8.672936 0,3.807631 -0.317302,4.230701 -4.442236,6.134516 l -4.442235,1.903815 -2.855723,-3.067258 c -3.807631,-4.124933 -8.249866,-4.124933 -12.3748,0 L 40.830231,84.72712 36.493763,82.823305 C 32.36883,80.91949 32.051528,80.49642 32.051528,76.583021 c 0,-5.288375 -4.019166,-8.990238 -9.201774,-8.355633 -3.173026,0.42307 -3.596096,0.105767 -5.394144,-4.230701 l -2.009582,-4.548003 2.96149,-3.067258 c 4.124933,-4.124933 4.124933,-8.778704 0,-12.586335 l -3.067258,-2.855723 2.009583,-4.548003 c 1.798048,-4.124933 2.221118,-4.442235 5.076841,-3.80763 4.65377,1.057675 9.624844,-3.596096 9.624844,-9.096007 0,-3.913398 0.317302,-4.336468 4.336468,-6.134516 l 4.2307,-1.903815 3.067258,2.961491 c 2.009583,2.11535 4.124934,3.067257 6.346051,3.067257 z" />
  <path
     style="opacity:1;fill:#000000;fill-opacity:1;fill-rule:nonzero;stroke:none;stroke-width:45.8219986;stroke-linecap:round;stroke-linejoin:miter;stroke-miterlimit:4;stroke-dasharray:none;stroke-dashoffset:0;stroke-opacity:1"
     d="m 43.525401,28.972294 0,27.035429 -13.631154,-7.869979 -6.490339,11.243016 20.121493,11.616775 0,0.03017 12.896745,0 0.08393,0 0,-0.04853 20.090016,-11.598411 -6.490337,-11.243016 -13.599679,7.852931 0,-27.018381 -12.980677,0 z"
     id="rect4208"
     inkscape:connector-curvature="0" />
</svg>
