<?xml version="1.0" encoding="UTF-8" standalone="no"?>
<svg
   xmlns:dc="http://purl.org/dc/elements/1.1/"
   xmlns:cc="http://creativecommons.org/ns#"
   xmlns:rdf="http://www.w3.org/1999/02/22-rdf-syntax-ns#"
   xmlns:svg="http://www.w3.org/2000/svg"
   xmlns="http://www.w3.org/2000/svg"
   xmlns:sodipodi="http://sodipodi.sourceforge.net/DTD/sodipodi-0.dtd"
   xmlns:inkscape="http://www.inkscape.org/namespaces/inkscape"
   inkscape:version="1.0 (4035a4fb49, 2020-05-01)"
   inkscape:export-ydpi="96"
   inkscape:export-xdpi="96"
   inkscape:export-filename="C:\Downloads\chat.png"
   sodipodi:docname="chat-box.svg"
   version="1.1"
   width="512"
   viewBox="0 0 512 512"
   height="512"
   enable-background="new 0 0 512 512"
   id="Capa_1">
  <metadata
     id="metadata13">
    <rdf:RDF>
      <cc:Work
         rdf:about="">
        <dc:format>image/svg+xml</dc:format>
        <dc:type
           rdf:resource="http://purl.org/dc/dcmitype/StillImage" />
        <dc:title></dc:title>
      </cc:Work>
    </rdf:RDF>
  </metadata>
  <defs
     id="defs11" />
  <sodipodi:namedview
     inkscape:current-layer="Capa_1"
     inkscape:window-maximized="1"
     inkscape:window-y="-8"
     inkscape:window-x="-8"
     inkscape:cy="41.608166"
     inkscape:cx="163.47653"
     inkscape:zoom="0.58695387"
     showgrid="false"
     id="namedview9"
     inkscape:window-height="1017"
     inkscape:window-width="1920"
     inkscape:pageshadow="2"
     inkscape:pageopacity="0"
     guidetolerance="10"
     gridtolerance="10"
     objecttolerance="10"
     borderopacity="1"
     bordercolor="#666666"
     pagecolor="#ff5fff" />
  <rect
     style="fill:#ffffff;stroke:none;stroke-width:12.592;stroke-dashoffset:125.92"
     id="rect840-9"
     width="293.34589"
     height="89.148232"
     x="44.272942"
     y="50.597649" />
  <path
     d="m 280.28,197.18 c 48.955,0 96.53,-37.606 96.53,-100.65 C 376.81,43.3 333.5,0 280.28,0 H 96.58 C 47.29,0 0.05,37.898 0.05,100.65 c 0,48.13 35.4,88.14 81.53,95.37 v 64.15 c 0,13.706 17.031,20.277 26.2,9.97 l 65,-72.96 z m -0.4,-117.17 c 10.27,0 18.59,8.32 18.59,18.58 0,10.26 -8.32,18.58 -18.59,18.58 -10.26,0 -18.58,-8.32 -18.58,-18.58 0,-10.26 8.32,-18.58 18.58,-18.58 z M 96.97,117.17 c -10.26,0 -18.58,-8.32 -18.58,-18.58 0,-10.26 8.32,-18.58 18.58,-18.58 10.27,0 18.59,8.32 18.59,18.58 0,10.26 -8.32,18.58 -18.59,18.58 z m 91.46,-37.16 c 10.26,0 18.58,8.32 18.58,18.58 0,10.26 -8.32,18.58 -18.58,18.58 -10.26,0 -18.58,-8.32 -18.58,-18.58 0,-10.26 8.32,-18.58 18.58,-18.58 z"
     id="path2" />
  <rect
     y="292.14117"
     x="179.50117"
     height="89.148232"
     width="293.34589"
     id="rect840"
     style="fill:#000000;stroke:none;stroke-width:12.592;stroke-dashoffset:125.92" />
  <path
     style="fill:#ffffff"
     d="m 415.42,236.83 h -183.7 c -53.22,0 -96.53,43.31 -96.53,96.54 0,62.173 46.78,100.65 96.53,100.65 h 107.5 l 65,72.96 c 9.09,10.219 26.2,3.813 26.2,-9.98 v -64.15 c 46.13,-7.23 81.53,-47.24 81.53,-95.37 0,-62.04 -46.655,-100.65 -96.53,-100.65 z m -183.3,117.179 c -10.27,0 -18.59,-8.32 -18.59,-18.59 0,-10.26 8.32,-18.58 18.59,-18.58 10.26,0 18.58,8.32 18.58,18.58 0,10.27 -8.32,18.59 -18.58,18.59 z m 91.45,0 c -10.26,0 -18.58,-8.32 -18.58,-18.59 0,-10.26 8.32,-18.58 18.58,-18.58 10.26,0 18.58,8.32 18.58,18.58 0,10.27 -8.32,18.59 -18.58,18.59 z m 91.46,0 c -10.27,0 -18.59,-8.32 -18.59,-18.59 0,-10.26 8.32,-18.58 18.59,-18.58 10.26,0 18.58,8.32 18.58,18.58 0,10.27 -8.32,18.59 -18.58,18.59 z"
     id="path4" />
</svg>
