<?xml version="1.0" encoding="UTF-8" standalone="no"?>
<svg
   xmlns:dc="http://purl.org/dc/elements/1.1/"
   xmlns:cc="http://creativecommons.org/ns#"
   xmlns:rdf="http://www.w3.org/1999/02/22-rdf-syntax-ns#"
   xmlns:svg="http://www.w3.org/2000/svg"
   xmlns="http://www.w3.org/2000/svg"
   xmlns:sodipodi="http://sodipodi.sourceforge.net/DTD/sodipodi-0.dtd"
   xmlns:inkscape="http://www.inkscape.org/namespaces/inkscape"
   inkscape:version="1.0 (4035a4fb49, 2020-05-01)"
   sodipodi:docname="door.svg"
   id="svg24"
   version="1.1"
   viewBox="-61 0 512 512">
  <metadata
     id="metadata30">
    <rdf:RDF>
      <cc:Work
         rdf:about="">
        <dc:format>image/svg+xml</dc:format>
        <dc:type
           rdf:resource="http://purl.org/dc/dcmitype/StillImage" />
      </cc:Work>
    </rdf:RDF>
  </metadata>
  <defs
     id="defs28" />
  <sodipodi:namedview
     inkscape:current-layer="svg24"
     inkscape:window-maximized="1"
     inkscape:window-y="-8"
     inkscape:window-x="-8"
     inkscape:cy="277.30264"
     inkscape:cx="114.65626"
     inkscape:zoom="0.37150727"
     showgrid="false"
     id="namedview26"
     inkscape:window-height="705"
     inkscape:window-width="1366"
     inkscape:pageshadow="2"
     inkscape:pageopacity="0"
     guidetolerance="10"
     gridtolerance="10"
     objecttolerance="10"
     borderopacity="1"
     bordercolor="#666666"
     pagecolor="#ffffff" />
  <path
     id="path2"
     fill="#ff7816"
     d="m360 0v482h-330v-151l30-30-30-30v-271zm0 0" />
  <path
     id="path4"
     fill="#ff4b00"
     d="m195 0h165v482h-165zm0 0" />
  <path
     id="path6"
     fill="#5a5a5a"
     d="m90 60v151h210v-151zm0 0" />
  <path
     id="path8"
     fill="#444"
     d="m195 60h105v151h-105zm0 0" />
  <path
     id="path10"
     fill="#d3d3d8"
     d="m0 452v60h120l45-30-15-30zm0 0" />
  <path
     id="path12"
     fill="#babac0"
     d="m240 452-15 30 45 30h120v-60zm0 0" />
  <path
     id="path14"
     fill="#ececf1"
     d="m270 512h-150l30-60h90zm0 0" />
  <path
     id="path16"
     fill="#e2e2e7"
     d="m270 512h-75v-60h45zm0 0" />
  <path
     d="M 60,331 H 30 v -60 h 30 c 16.570312,0 30,13.42969 30,30 0,16.57031 -13.429688,30 -30,30 z m 0,0"
     id="path18"
     style="fill:#5a5a5a" />
  <path
     d="m 60,286 h 60 v 30 H 60 Z m 0,0"
     id="path20"
     style="fill:#5a5a5a" />
</svg>
